<svg width="280" height="280" viewBox="0 0 280 280" fill="none" xmlns="http://www.w3.org/2000/svg">
<path d="M280 280H0V0H280V280Z" stroke="#E5E7EB"/>
<path d="M257.08 220.182C257.08 220.182 267.1 203.74 250.221 168.202C233.342 132.663 218.174 132.643 197.466 111.598C176.758 90.5529 166.868 65.9662 135.218 64.8155C103.568 63.6647 77.7118 75.2315 73.4909 98.8906C69.2699 122.55 72.7122 121.434 45.1445 131.82C17.5768 142.206 20.2106 175.131 24.9573 188.994C29.704 202.857 28.1218 209.786 24.9573 219.027C21.7928 228.267 29.704 235.777 37.0944 243.281C44.4848 250.786 68.2184 259.456 94.065 256.569C119.912 253.682 135.302 237.18 148.928 239.239C162.553 241.297 189.55 258.875 212.232 255.413C234.914 251.951 253.916 244.437 257.08 220.182Z" fill="#155DFC"/>
<path opacity="0.7" d="M257.08 220.182C257.08 220.182 267.1 203.74 250.221 168.202C233.342 132.663 218.174 132.643 197.466 111.598C176.758 90.5529 166.868 65.9662 135.218 64.8155C103.568 63.6647 77.7118 75.2315 73.4909 98.8906C69.2699 122.55 72.7122 121.434 45.1445 131.82C17.5768 142.206 20.2106 175.131 24.9573 188.994C29.704 202.857 28.1218 209.786 24.9573 219.027C21.7928 228.267 29.704 235.777 37.0944 243.281C44.4848 250.786 68.2184 259.456 94.065 256.569C119.912 253.682 135.302 237.18 148.928 239.239C162.553 241.297 189.55 258.875 212.232 255.413C234.914 251.951 253.916 244.437 257.08 220.182Z" fill="white"/>
<path d="M255.529 52.8321V57.2961L253.049 68.2081L249.577 53.3281L249.081 58.7841V64.2401C249.081 67.2161 247.593 78.6241 247.593 78.6241V70.1921L244.121 57.7921V64.2401L245.113 79.6161L241.184 61.7601L240.688 64.7361V79.1201C240.688 81.1041 236.72 92.0161 236.72 92.0161L237.712 81.6001L233.248 64.7361V76.1441C233.248 77.6321 230.272 90.0321 230.272 90.0321C230.272 90.0321 229.28 85.0721 229.28 81.6001C229.28 78.1281 228.288 65.7281 228.288 65.7281C228.288 65.7281 226.8 78.1281 225.312 82.0961C223.824 86.0641 217.872 96.4801 217.872 96.4801C217.872 96.4801 219.856 89.5361 220.848 86.5601C221.84 83.5841 221.344 70.6881 221.344 70.6881C221.344 70.6881 217.872 75.6481 217.376 80.6081C216.88 85.5681 208.944 98.4641 208.944 98.4641C208.944 98.4641 211.92 90.5281 211.92 88.0481C211.92 85.5681 214.4 72.1761 214.4 72.1761C214.4 72.1761 206.96 84.0801 206.464 87.0561C205.968 90.0321 195.056 97.9681 195.056 97.9681C195.056 97.9681 201.504 88.0481 203.488 84.5761C204.816 82.179 205.976 79.6931 206.96 77.1361C206.96 77.1361 200.016 85.5681 195.056 90.5281C190.096 95.4881 176.238 99.4561 176.238 99.4561L202.531 78.1281C202.531 78.1281 196.381 82.0961 190.969 85.4738C187.423 87.6761 184.194 89.6204 183.217 90.0122C180.737 91.0042 164.394 101.916 164.394 101.916C164.394 101.916 177.29 90.0122 182.721 85.5482C188.152 81.0842 202.531 74.6362 202.531 74.6362C202.531 74.6362 187.651 81.5802 182.225 82.0762C176.799 82.5722 166.849 89.5162 166.849 89.5162C166.849 89.5162 174.785 80.5882 181.729 79.1002C188.673 77.6122 207.486 69.1802 207.486 69.1802L196.078 69.6762L187.15 72.6522L185.216 73.297L172.32 77.6321C172.32 77.6321 195.101 65.7281 200.056 64.7361C205.011 63.7441 220.352 64.2401 220.352 64.2401L204.505 60.7681L181.223 65.2321C181.223 65.2321 200.046 58.2881 202.521 57.7921C204.996 57.2961 221.344 57.2961 221.344 57.2961L213.904 56.8001L187.16 54.3201C187.16 54.3201 214.4 51.3441 218.864 51.8401C223.328 52.3361 237.712 56.8001 237.712 56.8001C237.712 56.8001 230.768 52.3361 223.328 50.8481C218.357 49.7599 213.53 48.0953 208.944 45.8881C208.944 45.8881 221.84 47.8721 230.243 48.8641C238.645 49.8561 240.659 53.3281 240.659 53.3281L233.715 44.8961L228.755 42.4161C228.755 42.4161 240.659 48.8641 242.147 49.8561C243.635 50.8481 245.619 52.3361 245.619 52.3361C245.619 52.3361 242.643 48.8641 241.155 46.8801C239.667 44.8961 235.699 41.4241 235.699 41.4241C235.699 41.4241 245.619 48.8641 247.107 48.8641C248.595 48.8641 249.091 50.3521 249.091 50.3521L244.131 42.4161L252.563 46.3841L255.529 52.8321Z" fill="#263238"/>
<path d="M255.245 62.1073L257.324 65.3313L260.612 74.3734L251.173 65.2321L253.356 69.4035L255.895 73.3715C257.284 75.5241 261.52 84.462 261.52 84.462L257.592 78.3662L249.308 71.0254L251.158 73.8923L252.314 75.6481L260.191 86.3022L249.006 75.2414L250.033 77.6222C250.033 77.6222 255.806 86.5849 256.733 88.0382C257.661 89.4915 259.868 99.2081 259.868 99.2081L255.736 91.2176L244.656 81.1041C244.656 81.1041 249.274 88.2763 249.968 89.3476C250.662 90.419 254.288 100.756 254.288 100.756C252.593 99.0029 251.039 97.1189 249.641 95.1211C248.024 92.6113 241.531 84.1099 241.531 84.1099C241.531 84.1099 246.233 93.767 246.987 97.3283C247.741 100.89 248.306 111.187 248.306 111.187C248.306 111.187 246.506 105.235 245.826 102.635C245.147 100.036 238.793 90.9299 238.793 90.9299C238.793 90.9299 238.595 96.1329 240.544 99.9472C242.493 103.761 242.796 116.816 242.796 116.816C242.796 116.816 241.253 109.694 240.098 107.888C238.942 106.083 234.498 95.26 234.498 95.26C234.498 95.26 234.666 107.328 235.693 109.708C236.72 112.089 232.529 122.912 232.529 122.912C232.529 122.912 232.568 112.739 232.385 109.302C232.228 106.951 231.91 104.615 231.433 102.308C231.433 102.308 230.336 111.638 229.062 117.53C227.787 123.423 219.598 132.763 219.598 132.763L228.665 105.106C228.665 105.106 226.071 110.864 223.725 115.824C222.187 119.078 220.749 121.989 220.228 122.728C218.899 124.598 212.148 140.088 212.148 140.088C212.148 140.088 215.928 125.481 217.793 119.713C219.657 113.944 227.048 102.586 227.048 102.586C227.048 102.586 219.529 114.535 215.813 117.436C212.098 120.338 208.165 129.975 208.165 129.975C208.165 129.975 209.747 119.822 214.073 115.517C218.398 111.211 228.094 96.3313 228.094 96.3313L220.079 102.006L215.01 108.315L213.904 109.689L206.558 118.84C206.558 118.84 217.505 99.6099 220.625 96.5793C223.744 93.5488 235.093 86.7536 235.093 86.7536L222.004 91.6342L207.233 105.716C207.233 105.716 217.624 91.9219 219.186 90.4091C220.749 88.8963 232.578 81.2728 232.578 81.2728L226.969 84.3777L206.464 95.0566C206.464 95.0566 224.816 80.2014 228.253 78.4803C231.69 76.7592 244.185 73.2872 244.185 73.2872C244.185 73.2872 237.087 73.2872 231.016 75.6878C226.916 77.2131 222.654 78.2568 218.313 78.7977C218.313 78.7977 228.556 74.2296 235.113 71.0204C241.67 67.8113 244.72 69.3936 244.72 69.3936L235.792 66.5316L231.056 67.0276C231.056 67.0276 242.662 66.1448 244.2 66.1646C245.737 66.1844 247.865 66.3432 247.865 66.3432C247.865 66.3432 244.095 65.2172 242.097 64.4782C240.098 63.7392 235.609 63.0745 235.609 63.0745C235.609 63.0745 246.248 63.8334 247.319 63.139C247.649 62.9487 248.028 62.8616 248.407 62.889C248.786 62.9164 249.149 63.0571 249.447 63.2928L242.166 59.8654L250.102 58.804L255.245 62.1073Z" fill="#263238"/>
<path d="M108.028 161.526C107.507 162.07 107.038 162.663 106.629 163.296" stroke="#263238" stroke-linecap="round" stroke-linejoin="round"/>
<path d="M124.128 201.483H172.359C172.359 201.483 174.001 196.553 167.975 193.269C161.948 189.986 159.21 192.719 157.018 189.981C154.826 187.243 163.045 180.12 146.602 172.998C146.602 172.998 145.506 157.657 123.042 157.126C116.301 156.962 112.13 158.277 109.417 160.305" stroke="#263238" stroke-linecap="round" stroke-linejoin="round"/>
<path d="M109.402 201.483H117.433" stroke="#263238" stroke-linecap="round" stroke-linejoin="round"/>
<path d="M55.5117 201.483H95.3554" stroke="#263238" stroke-linecap="round" stroke-linejoin="round"/>
<path d="M103.703 170.88C103.018 173.216 102.274 175.23 100.588 176.306C94.5616 180.14 92.9198 174.114 86.8934 177.948C80.867 181.782 83.6049 189.455 78.6747 190.546C73.7444 191.638 67.1724 185.616 61.146 189.455C55.1196 193.294 55.1196 196.573 52.3817 196.573C49.6438 196.573 44.163 194.385 40.8745 196.573C37.586 198.76 33.752 201.503 33.752 201.503H53.1604" stroke="#263238" stroke-linecap="round" stroke-linejoin="round"/>
<path d="M106.004 80.9353C105.3 80.2111 104.084 79.5415 101.976 79.487C97.2396 79.3729 98.5044 82.7259 97.2396 83.5343C95.9748 84.3428 95.6227 83.0731 94.3529 83.8815C93.0832 84.69 93.6585 86.307 92.6169 86.5401C91.5753 86.7732 90.1915 85.4985 88.9217 86.307C87.652 87.1155 87.647 87.795 87.0716 87.795C86.4963 87.795 85.3356 87.3337 84.6462 87.795C83.9568 88.2563 83.1582 88.8366 83.1582 88.8366H95.5582" stroke="#263238" stroke-linecap="round" stroke-linejoin="round"/>
<path d="M107.309 83.0037L106.947 82.84C106.891 82.408 106.746 81.9924 106.521 81.6199" stroke="#263238" stroke-linecap="round" stroke-linejoin="round"/>
<path d="M97.1406 88.8515H112.378C112.378 88.8515 112.725 87.8099 111.455 87.1155C110.185 86.4211 109.605 87.0015 109.144 86.4211C108.683 85.8408 110.061 84.6603 107.909 83.3311" stroke="#263238" stroke-linecap="round" stroke-linejoin="round"/>
<path d="M64.6924 89.9526C63.9931 89.2235 62.7779 88.5539 60.6699 88.5043C55.9331 88.3902 57.1979 91.7382 55.9331 92.5467C54.6683 93.3552 54.3161 92.0854 53.0414 92.8939C51.7667 93.7024 52.347 95.3243 51.3104 95.5525C50.2737 95.7806 48.8849 94.5109 47.6102 95.3243C46.3355 96.1378 46.3404 96.8123 45.7601 96.8123C45.1798 96.8123 44.0291 96.351 43.3347 96.8123C42.6403 97.2736 41.8467 97.8539 41.8467 97.8539H54.2467" stroke="#263238" stroke-linecap="round" stroke-linejoin="round"/>
<path d="M65.9966 92.0159L65.6395 91.8522C65.5846 91.4201 65.4392 91.0043 65.2129 90.6321" stroke="#263238" stroke-linecap="round" stroke-linejoin="round"/>
<path d="M55.8291 97.8639H71.0563C71.0563 97.8639 71.4035 96.8223 70.1337 96.1329C68.864 95.4434 68.2837 96.0138 67.8224 95.4385C67.3611 94.8631 68.74 93.6777 66.5873 92.3484" stroke="#263238" stroke-linecap="round" stroke-linejoin="round"/>
<path d="M171.715 88.8515H201.931C201.931 88.8515 202.963 85.7615 199.183 83.7031C195.403 81.6447 193.692 83.3608 192.318 81.6447C190.944 79.9285 196.098 75.4645 185.801 71.0005C185.801 71.0005 185.111 61.393 171.04 61.0507C164.969 60.9019 162.221 62.6726 160.753 64.9245" stroke="#263238" stroke-linecap="round" stroke-linejoin="round"/>
<path d="M162.494 88.8516H167.524" stroke="#263238" stroke-linecap="round" stroke-linejoin="round"/>
<path d="M158.922 69.6614C158.491 71.1246 158.024 72.3894 156.968 73.0639C153.193 75.4646 152.167 71.69 148.387 74.0907C144.608 76.4913 146.329 81.2975 143.239 81.987C140.149 82.6764 136.032 78.8969 132.257 81.2975C128.483 83.6982 128.483 85.7615 126.767 85.7615C125.05 85.7615 121.618 84.3876 119.56 85.7615C117.501 87.1355 115.096 88.8516 115.096 88.8516H153.689" stroke="#263238" stroke-linecap="round" stroke-linejoin="round"/>
<path d="M241.467 248.41C243.128 248.479 244.101 248.539 245.073 248.539H250.365" stroke="#263238" stroke-linecap="round" stroke-linejoin="round"/>
<path d="M81.3926 249.213C90.0527 249.273 97.8003 249.486 103.549 249.213C110.161 248.881 129.668 245.905 143.229 245.905C156.79 245.905 177.284 245.905 194.148 247.889C211.012 249.873 217.297 248.221 228.868 248.221C232.593 248.221 235.356 248.256 237.474 248.301" stroke="#263238" stroke-linecap="round" stroke-linejoin="round"/>
<path d="M34.7686 249.858C34.7686 249.858 47.6646 249.531 57.2522 249.531C66.8399 249.531 67.1722 249.198 77.4246 249.198" stroke="#263238" stroke-linecap="round" stroke-linejoin="round"/>
<path d="M151.859 254.942C154.081 255.081 155.46 255.15 155.46 255.15" stroke="#263238" stroke-linecap="round" stroke-linejoin="round"/>
<path d="M74.7812 255.15C74.7812 255.15 77.7572 255.15 93.2969 254.491C108.837 253.831 121.073 251.842 131.653 253.166C137.342 253.876 143.795 254.397 148.546 254.724" stroke="#263238" stroke-linecap="round" stroke-linejoin="round"/>
<path d="M206.717 251.515C206.717 251.515 200.1 252.174 184.893 251.182C169.686 250.19 166.705 251.515 164.721 251.515H159.761" stroke="#263238" stroke-linecap="round" stroke-linejoin="round"/>
<path d="M195.145 255.934C192.381 255.95 189.62 256.13 186.877 256.475C179.6 257.467 174.308 258.459 171.332 258.786" stroke="#263238" stroke-linecap="round" stroke-linejoin="round"/>
<path d="M203.741 256.143C203.741 256.143 202.005 256.023 199.45 255.959" stroke="#263238" stroke-linecap="round" stroke-linejoin="round"/>
<path d="M73.1289 258.98C75.6932 259.049 77.4243 259.118 77.4243 259.118" stroke="#263238" stroke-linecap="round" stroke-linejoin="round"/>
<path d="M48.6562 259.778C52.9223 259.11 57.2342 258.778 61.5522 258.786C64.067 258.786 66.7404 258.826 69.1609 258.88" stroke="#263238" stroke-linecap="round" stroke-linejoin="round"/>
<path d="M188.206 161.982C188.206 161.982 180.493 155.038 177.666 155.94C174.839 156.843 173.167 167.765 173.167 173.682C173.167 179.6 172.141 188.979 172.141 188.979L182.81 182.938C182.81 182.938 188.335 181.653 192.065 175.225C195.795 168.797 188.206 161.982 188.206 161.982Z" fill="white" stroke="#263238" stroke-linecap="round" stroke-linejoin="round"/>
<path d="M80.4058 219.518C80.4058 219.518 68.7101 225.688 66.5178 225.817C64.3255 225.946 58.0313 225.043 55.8489 223.501C53.6665 221.958 52.1189 220.287 50.9633 220.673C49.8076 221.06 49.2918 222.345 49.6786 222.99C49.8831 223.351 50.1791 223.652 50.5367 223.863C50.5367 223.863 48.6569 224.23 49.0189 225.847C49.1542 226.293 49.203 226.761 49.1628 227.226C49.1628 227.226 48.518 229.026 48.9049 229.666C49.2917 230.306 49.9365 231.466 49.9365 231.466C49.9365 231.466 50.1895 232.756 52.5058 234.041C53.4018 234.629 54.2599 235.274 55.0751 235.97C56.6177 237.255 63.3037 241.882 65.2332 242.14C67.1626 242.398 69.2012 240.851 70.3767 239.695C71.5522 238.539 72.817 233.247 74.2306 231.466C75.6442 229.686 85.1029 217.901 85.8717 216.358C86.6405 214.816 80.4058 219.518 80.4058 219.518Z" fill="white" stroke="#263238" stroke-linecap="round" stroke-linejoin="round"/>
<path d="M50.8389 223.372C50.8389 223.372 49.4253 227.875 49.8122 230.058" stroke="#263238" stroke-linecap="round" stroke-linejoin="round"/>
<path d="M181.768 239.011C181.176 239.011 180.608 238.775 180.19 238.357C179.771 237.938 179.536 237.371 179.536 236.779V187.015C179.536 186.423 179.771 185.855 180.19 185.437C180.608 185.018 181.176 184.783 181.768 184.783C182.36 184.783 182.928 185.018 183.346 185.437C183.765 185.855 184 186.423 184 187.015V236.779C184.001 237.072 183.944 237.362 183.832 237.634C183.72 237.905 183.555 238.151 183.348 238.358C183.14 238.566 182.894 238.73 182.623 238.842C182.352 238.954 182.061 239.011 181.768 239.011Z" fill="#263238" stroke="#263238" stroke-linecap="round" stroke-linejoin="round"/>
<path d="M143.229 226.878C143.229 226.878 155.133 223.208 161.581 221.174C168.029 219.141 177.796 214.201 182.785 210.877C187.775 207.554 191.659 205.332 193.697 201.081C195.736 196.831 197.397 192.58 197.397 188.681V184.803L133.265 224.736L143.229 226.878Z" fill="white" stroke="#263238" stroke-linecap="round" stroke-linejoin="round"/>
<path d="M93.2823 248.95C92.6875 248.951 92.1088 248.758 91.6343 248.399C91.1597 248.04 90.8154 247.537 90.6536 246.964C90.4919 246.392 90.5216 245.783 90.7382 245.229C90.9549 244.675 91.3466 244.207 91.8538 243.896L207.258 173.296C207.876 172.918 208.618 172.801 209.322 172.971C210.025 173.141 210.633 173.583 211.01 174.201C211.388 174.818 211.505 175.561 211.335 176.264C211.165 176.968 210.723 177.575 210.105 177.953L94.7008 248.549C94.2741 248.811 93.7831 248.95 93.2823 248.95Z" fill="#263238" stroke="#263238" stroke-linecap="round" stroke-linejoin="round"/>
<path d="M108.256 197.466C108.256 197.466 101.808 195.02 100.028 195.665C98.2469 196.31 95.5288 201.449 95.2709 202.113C95.013 202.778 82.8709 214.394 80.6736 218.253C78.4763 222.112 70.7536 232.007 70.7536 232.007C70.7536 232.007 69.097 238.286 68.0802 239.328C67.0634 240.37 64.7371 240.102 63.3235 239.199C61.5355 237.99 59.6863 236.874 57.7832 235.856C56.085 235.095 54.32 234.492 52.5107 234.056C52.6021 235.263 52.7677 236.464 53.0067 237.652C53.3887 239.452 53.6466 240.742 55.576 242.284C57.5055 243.827 59.544 245.756 61.7463 246.912C63.9485 248.068 66.116 250.126 68.6903 248.707C71.2645 247.289 73.3378 243.296 73.9776 242.8C74.6175 242.304 77.7075 236.759 80.6637 234.958C83.6199 233.158 92.1759 226.278 95.6479 222.677C99.1199 219.076 102.716 211.106 102.716 211.106L107.73 213.933C107.73 213.933 112.487 209.305 112.487 204.806C112.487 200.308 108.256 197.466 108.256 197.466Z" fill="white" stroke="#263238" stroke-linecap="round" stroke-linejoin="round"/>
<path d="M68.0801 239.328C67.0534 240.36 64.7371 240.102 63.3235 239.199C61.5355 237.99 59.6862 236.874 57.7832 235.856C57.2123 235.577 56.6261 235.33 56.0273 235.117C56.5233 236.154 57.1632 237.552 57.8129 239.06C58.8942 241.59 60.8733 245.27 62.9217 247.581C64.7321 248.683 66.5921 249.873 68.7101 248.707C69.7385 248.078 70.6415 247.264 71.3736 246.307C71.7704 244.377 71.8696 241.486 71.8696 238.038C71.8696 233.356 73.7693 228.535 73.7693 228.535L73.303 228.709C71.8547 230.628 70.7833 231.997 70.7833 231.997C70.7833 231.997 69.0969 238.286 68.0801 239.328Z" fill="#263238" stroke="#263238" stroke-linecap="round" stroke-linejoin="round"/>
<path d="M108.256 209.072L106.064 209.806L103.866 209.657L100.072 206.592C100.704 208.483 100.754 210.52 100.216 212.44C99.3379 215.808 95.0971 222.533 95.0971 222.533L91.9326 226.134C93.4206 224.85 94.7102 223.654 95.6477 222.662C99.1197 219.061 102.716 211.091 102.716 211.091L107.73 213.918C108.459 213.18 109.132 212.389 109.744 211.552C109.084 210.367 108.256 209.072 108.256 209.072Z" fill="#263238" stroke="#263238" stroke-linecap="round" stroke-linejoin="round"/>
<path d="M138.2 204.405C138.2 204.405 125.344 200.68 119.947 199.137C114.551 197.595 108.762 196.305 107.731 196.821C106.699 197.337 105.161 210.575 105.419 211.865C105.607 212.715 105.909 213.536 106.317 214.305C106.317 214.305 118.529 219.448 123.181 221.12C127.834 222.791 134.237 226.134 136.29 226.134C138.344 226.134 140.536 224.716 141.305 223.947C142.074 223.178 141.563 213.789 141.563 210.446C141.581 208.542 141.364 206.643 140.918 204.792L138.2 204.405Z" fill="#263238" stroke="#263238" stroke-linecap="round" stroke-linejoin="round"/>
<path d="M181.01 181.792C181.01 181.792 176.253 183.464 169.438 188.091C162.623 192.719 157.856 197.724 155.297 199.648C152.738 201.572 142.956 203.616 141.672 203.616H138.2C138.2 203.616 136.657 206.334 136.528 213.04C136.535 217.417 137.274 221.763 138.716 225.896C143.637 223.934 148.712 222.38 153.888 221.249C163.015 219.19 176.774 212.762 183.842 207.619C190.91 202.475 192.844 200.293 194.511 196.95C196.177 193.607 197.214 191.806 196.698 187.952C196.182 184.098 190.399 181.266 186.669 181.008C182.939 180.75 181.01 181.792 181.01 181.792Z" fill="#155DFC" stroke="#263238" stroke-linecap="round" stroke-linejoin="round"/>
<path d="M159.899 214.31C160.865 214.522 161.853 214.612 162.841 214.578" stroke="#263238" stroke-linecap="round" stroke-linejoin="round"/>
<path d="M141.666 204.782C141.666 204.782 140.739 207.559 150.004 211.269C152.715 212.384 155.505 213.292 158.352 213.987" stroke="#263238" stroke-linecap="round" stroke-linejoin="round"/>
<path d="M147.882 206.096C149.677 206.9 152.842 207.822 157.802 207.822" stroke="#263238" stroke-linecap="round" stroke-linejoin="round"/>
<path d="M145.902 204.916C146.094 205.083 146.3 205.234 146.517 205.367" stroke="#263238" stroke-linecap="round" stroke-linejoin="round"/>
<path d="M164.716 197.168C163.809 196.796 163.372 196.558 163.372 196.558" stroke="#263238" stroke-linecap="round" stroke-linejoin="round"/>
<path d="M188.385 199.752C188.385 199.752 189.972 202.401 179.12 200.814C174.708 200.224 170.367 199.195 166.159 197.743" stroke="#263238" stroke-linecap="round" stroke-linejoin="round"/>
<path d="M187.437 160.181C187.437 160.181 182.81 161.466 182.552 163.008C182.294 164.551 181.525 165.454 181.009 165.712C180.493 165.97 177.795 165.216 177.15 165.97C176.505 166.724 176.897 169.184 176.897 169.184C175.978 170.737 175.203 172.37 174.581 174.064C173.812 176.381 174.581 176.768 175.479 177.154C176.376 177.541 178.455 178.697 178.455 178.697L179.095 183.454C179.095 183.454 175.623 186.792 176.267 187.179C176.912 187.565 188.221 181.911 188.221 181.911C188.221 181.911 194.52 180.492 196.192 179.466C197.863 178.439 202.64 171.753 201.206 167.765C199.773 163.777 194.396 161.317 192.08 160.955L187.437 160.181Z" fill="white" stroke="#263238" stroke-linecap="round" stroke-linejoin="round"/>
<path d="M190.484 175.756C190.484 175.756 184.036 177.953 181.704 177.953C179.671 177.953 175.648 176.897 174.597 176.614C174.85 176.854 175.151 177.038 175.48 177.154C176.382 177.536 178.456 178.697 178.456 178.697L178.52 179.193L186.769 182.64L187.443 182.303L190.484 175.756Z" fill="#263238"/>
<path d="M185.508 165.196L184.353 166.481C184.353 166.481 185.121 167.512 186.024 167.512" stroke="#263238" stroke-linecap="round" stroke-linejoin="round"/>
<path d="M185.137 163.395C185.137 163.395 187.066 162.111 188.867 165.067" stroke="#263238" stroke-linecap="round" stroke-linejoin="round"/>
<path d="M177.925 170.85C178.458 171.323 179.096 171.662 179.785 171.841C180.475 172.021 181.197 172.035 181.893 171.882" stroke="#263238" stroke-linecap="round" stroke-linejoin="round"/>
<path d="M198.751 161.213C198.751 161.213 195.924 158.237 193.092 157.096C190.26 155.955 187.308 155.296 187.437 156.198C187.566 157.101 189.625 158.381 189.625 158.381C189.625 158.381 184.352 157.741 184.739 159.413C185.126 161.084 197.337 164.68 197.337 164.68C197.337 164.68 191.807 165.712 191.936 166.867C192.065 168.023 192.581 168.023 192.581 168.797C192.581 169.571 190.007 172.522 190.522 173.038C191.038 173.553 193.092 170.85 193.608 170.85C194.123 170.85 196.306 170.597 196.306 173.553C196.306 176.51 194.381 177.521 193.608 177.665C192.681 177.934 191.778 178.279 190.909 178.697C190.909 178.697 194.252 179.982 196.048 179.982C197.843 179.982 202.496 178.697 204.276 175.225C206.057 171.753 204.148 164.809 202.476 163.009C201.513 161.951 200.178 161.307 198.751 161.213Z" fill="#263238"/>
<path d="M185.137 188.21C185.137 188.21 186.55 182.68 188.113 178.052C189.675 173.425 192.993 165.325 194.794 161.337C196.594 157.349 200.195 156.456 201.351 156.58C202.507 156.704 204.436 160.955 204.327 163.782C204.218 166.609 202.145 170.597 201.887 171.882C201.629 173.167 197.646 184.738 197.646 187.308C197.646 189.877 195.072 194.509 193.142 196.052" fill="#155DFC"/>
<path d="M185.137 188.21C185.137 188.21 186.55 182.68 188.113 178.052C189.675 173.425 192.993 165.325 194.794 161.337C196.594 157.349 200.195 156.456 201.351 156.58C202.507 156.704 204.436 160.955 204.327 163.782C204.218 166.609 202.145 170.597 201.887 171.882C201.629 173.167 197.646 184.738 197.646 187.308C197.646 189.877 195.072 194.509 193.142 196.052" stroke="#263238" stroke-linecap="round" stroke-linejoin="round"/>
<path d="M204.277 163.782C204.406 160.955 202.476 156.709 201.301 156.58C200.125 156.451 196.544 157.354 194.744 161.337C192.943 165.32 189.605 173.425 188.063 178.052C187.686 179.173 187.324 180.344 186.981 181.475C187.874 183.801 189.848 188.622 191.019 189.108C192.085 189.554 195.255 188.761 197.571 187.377C197.571 187.377 197.571 187.332 197.571 187.308C197.571 184.738 201.539 173.167 201.812 171.882C202.085 170.597 204.148 166.609 204.277 163.782Z" fill="white" stroke="#263238" stroke-linecap="round" stroke-linejoin="round"/>
<path d="M104.551 220.063C104.179 219.691 103.939 219.206 103.869 218.685C103.798 218.163 103.9 217.632 104.159 217.174C104.418 216.715 104.821 216.355 105.304 216.146C105.788 215.938 106.326 215.894 106.837 216.021L214.777 244.209C215.097 244.272 215.4 244.4 215.67 244.585C215.939 244.769 216.168 245.006 216.343 245.281C216.518 245.556 216.635 245.864 216.688 246.186C216.741 246.507 216.728 246.837 216.65 247.153C216.573 247.47 216.432 247.768 216.236 248.029C216.04 248.289 215.793 248.508 215.51 248.67C215.228 248.833 214.915 248.937 214.591 248.976C214.268 249.015 213.939 248.987 213.626 248.896L105.687 220.708C105.255 220.603 104.862 220.38 104.551 220.063Z" fill="#263238" stroke="#263238" stroke-linecap="round" stroke-linejoin="round"/>
<path d="M96.6054 248.95C96.0111 248.95 95.4331 248.756 94.9594 248.397C94.4857 248.038 94.1422 247.534 93.9811 246.962C93.8199 246.39 93.8501 245.781 94.0668 245.227C94.2836 244.674 94.6751 244.207 95.1819 243.896L210.581 173.296C211.199 172.918 211.941 172.801 212.645 172.971C213.349 173.141 213.956 173.583 214.334 174.201C214.711 174.818 214.828 175.561 214.658 176.264C214.488 176.968 214.046 177.575 213.428 177.953L98.029 248.549C97.6007 248.812 97.108 248.951 96.6054 248.95Z" fill="white" stroke="#263238" stroke-linecap="round" stroke-linejoin="round"/>
<path d="M105.082 218.942C104.713 218.568 104.476 218.084 104.407 217.563C104.339 217.042 104.442 216.513 104.701 216.056C104.96 215.599 105.361 215.239 105.843 215.03C106.325 214.822 106.863 214.776 107.373 214.9L217.788 244.015C218.385 244.19 218.892 244.589 219.202 245.128C219.513 245.667 219.604 246.305 219.455 246.91C219.307 247.514 218.931 248.038 218.406 248.372C217.881 248.706 217.247 248.824 216.637 248.702L106.222 219.587C105.789 219.484 105.394 219.26 105.082 218.942Z" fill="white" stroke="#263238" stroke-linecap="round" stroke-linejoin="round"/>
<path d="M132.317 225.142C132.865 225.142 133.309 224.698 133.309 224.15C133.309 223.603 132.865 223.158 132.317 223.158C131.769 223.158 131.325 223.603 131.325 224.15C131.325 224.698 131.769 225.142 132.317 225.142Z" fill="#263238" stroke="#263238" stroke-linecap="round" stroke-linejoin="round"/>
<path d="M216.141 247.214C216.689 247.214 217.133 246.77 217.133 246.222C217.133 245.675 216.689 245.23 216.141 245.23C215.594 245.23 215.149 245.675 215.149 246.222C215.149 246.77 215.594 247.214 216.141 247.214Z" fill="#263238" stroke="#263238" stroke-linecap="round" stroke-linejoin="round"/>
<path d="M108.51 218.942C109.057 218.942 109.502 218.498 109.502 217.95C109.502 217.403 109.057 216.958 108.51 216.958C107.962 216.958 107.518 217.403 107.518 217.95C107.518 218.498 107.962 218.942 108.51 218.942Z" fill="#263238" stroke="#263238" stroke-linecap="round" stroke-linejoin="round"/>
<path d="M104.045 242.502C104.593 242.502 105.037 242.058 105.037 241.51C105.037 240.963 104.593 240.518 104.045 240.518C103.497 240.518 103.053 240.963 103.053 241.51C103.053 242.058 103.497 242.502 104.045 242.502Z" fill="#263238" stroke="#263238" stroke-linecap="round" stroke-linejoin="round"/>
<path d="M207.461 179.262C208.009 179.262 208.453 178.818 208.453 178.27C208.453 177.723 208.009 177.278 207.461 177.278C206.913 177.278 206.469 177.723 206.469 178.27C206.469 178.818 206.913 179.262 207.461 179.262Z" fill="#263238" stroke="#263238" stroke-linecap="round" stroke-linejoin="round"/>
<path d="M187.869 242.339C187.277 242.339 186.709 242.104 186.29 241.685C185.872 241.266 185.637 240.699 185.637 240.107V190.338C185.637 189.746 185.872 189.178 186.29 188.76C186.709 188.341 187.277 188.106 187.869 188.106C188.461 188.106 189.028 188.341 189.447 188.76C189.866 189.178 190.101 189.746 190.101 190.338V240.107C190.099 240.698 189.864 241.265 189.446 241.684C189.027 242.102 188.46 242.337 187.869 242.339Z" fill="white" stroke="#263238" stroke-linecap="round" stroke-linejoin="round"/>
<path d="M187.869 240.27C188.417 240.27 188.861 239.826 188.861 239.278C188.861 238.731 188.417 238.286 187.869 238.286C187.321 238.286 186.877 238.731 186.877 239.278C186.877 239.826 187.321 240.27 187.869 240.27Z" fill="#263238" stroke="#263238" stroke-linecap="round" stroke-linejoin="round"/>
<path d="M187.869 191.91C188.417 191.91 188.861 191.466 188.861 190.918C188.861 190.371 188.417 189.926 187.869 189.926C187.321 189.926 186.877 190.371 186.877 190.918C186.877 191.466 187.321 191.91 187.869 191.91Z" fill="#263238" stroke="#263238" stroke-linecap="round" stroke-linejoin="round"/>
<path d="M133.309 203.234L151.165 202.242L138.596 199.102L120.244 199.762L133.309 203.234Z" fill="#D4D4D4" stroke="#263238" stroke-linecap="round" stroke-linejoin="round"/>
<path d="M133.309 203.234L120.244 199.762V182.566L133.309 183.89V203.234Z" fill="#A8A8A8" stroke="#263238" stroke-linecap="round" stroke-linejoin="round"/>
<path d="M134.673 200.03L140.496 201.806H145.942L139.102 199.906L134.673 200.03Z" fill="#D4D4D4" stroke="#263238" stroke-linecap="round" stroke-linejoin="round"/>
<path d="M133.309 183.89L120.244 182.571V197.634C120.858 197.744 121.489 197.698 122.081 197.501C122.672 197.305 123.205 196.963 123.632 196.509C125.452 194.356 126.608 189.728 129.916 188.573C131.652 187.962 132.699 187.581 133.309 187.362V183.89Z" fill="#263238" stroke="#263238" stroke-linecap="round" stroke-linejoin="round"/>
<path d="M126.36 194.524C126.954 194.524 127.436 193.598 127.436 192.456C127.436 191.314 126.954 190.388 126.36 190.388C125.765 190.388 125.283 191.314 125.283 192.456C125.283 193.598 125.765 194.524 126.36 194.524Z" fill="white" stroke="#263238" stroke-linecap="round" stroke-linejoin="round"/>
<path d="M230.689 167.775C240.824 167.775 249.041 159.559 249.041 149.423C249.041 139.288 240.824 131.071 230.689 131.071C220.553 131.071 212.337 139.288 212.337 149.423C212.337 159.559 220.553 167.775 230.689 167.775Z" fill="white" stroke="#155DFC" stroke-width="6" stroke-linecap="round" stroke-linejoin="round"/>
<path d="M238.61 154.433C237.494 154.433 236.959 154.031 236.721 153.54V146.755C236.721 145.656 236.39 144.583 235.77 143.676C235.151 142.769 234.272 142.07 233.249 141.671C233.274 141.552 233.288 141.43 233.288 141.308C233.288 141.082 233.244 140.857 233.157 140.648C233.07 140.439 232.943 140.248 232.783 140.088C232.623 139.928 232.432 139.801 232.223 139.714C232.013 139.627 231.789 139.582 231.562 139.582H231.116C230.863 139.584 230.613 139.641 230.384 139.75C230.155 139.858 229.953 140.016 229.791 140.211C229.63 140.407 229.514 140.635 229.45 140.88C229.387 141.126 229.378 141.382 229.425 141.631C228.368 142.009 227.454 142.704 226.807 143.621C226.16 144.538 225.811 145.632 225.809 146.755V153.52C225.571 154.016 225.04 154.413 223.919 154.413V156.303H229.484C229.484 156.342 229.484 156.377 229.484 156.417C229.484 156.889 229.672 157.342 230.006 157.676C230.34 158.01 230.792 158.197 231.265 158.197C231.737 158.197 232.19 158.01 232.524 157.676C232.858 157.342 233.045 156.889 233.045 156.417C233.045 156.377 233.045 156.342 233.045 156.303H238.61V154.433Z" fill="#263238"/>
<path d="M215.636 158.763L245.391 138.422" stroke="#155DFC" stroke-width="6" stroke-linecap="round" stroke-linejoin="round"/>
<path d="M191.045 135.028C198.212 127.861 198.212 116.241 191.045 109.074C183.878 101.908 172.258 101.908 165.091 109.074C157.924 116.241 157.924 127.861 165.091 135.028C172.258 142.195 183.878 142.195 191.045 135.028Z" fill="white" stroke="#155DFC" stroke-width="6" stroke-linecap="round" stroke-linejoin="round"/>
<path d="M185.97 117.962C185.761 117.964 185.552 117.979 185.345 118.006C185.146 116.344 184.379 114.801 183.172 113.64C181.966 112.479 180.395 111.772 178.726 111.637C177.057 111.503 175.393 111.95 174.017 112.903C172.64 113.856 171.636 115.256 171.174 116.866C169.811 117.049 168.568 117.739 167.693 118.8C166.818 119.86 166.375 121.211 166.453 122.584C166.532 123.957 167.125 125.249 168.115 126.203C169.106 127.156 170.419 127.701 171.794 127.728H185.97C187.263 127.728 188.503 127.214 189.417 126.3C190.332 125.386 190.845 124.145 190.845 122.852C190.845 121.559 190.332 120.319 189.417 119.405C188.503 118.49 187.263 117.977 185.97 117.977V117.962Z" fill="#263238"/>
<path d="M176.793 131.721L174.775 128.224L172.751 131.721H173.783V134.523H175.767V131.721H176.793Z" fill="#263238"/>
<path d="M179.149 131.027L181.168 134.523L183.187 131.027H182.16V128.224H180.176V131.027H179.149Z" fill="#263238"/>
<path d="M162.683 131.389L192.438 111.048" stroke="#155DFC" stroke-width="6" stroke-linecap="round" stroke-linejoin="round"/>
<path d="M116.901 147.561C126.774 145.269 132.92 135.408 130.628 125.535C128.336 115.662 118.474 109.516 108.601 111.808C98.7282 114.1 92.5827 123.962 94.8748 133.835C97.1668 143.708 107.029 149.853 116.901 147.561Z" fill="white" stroke="#155DFC" stroke-width="6" stroke-linecap="round" stroke-linejoin="round"/>
<path d="M113.058 130.937C113.058 130.279 113.319 129.649 113.784 129.184C114.249 128.719 114.88 128.457 115.538 128.457H118.043V121.34C118.043 120.657 117.771 120.002 117.289 119.519C116.806 119.037 116.151 118.765 115.468 118.765H101.809C101.126 118.765 100.471 119.037 99.9884 119.519C99.5056 120.002 99.2344 120.657 99.2344 121.34V129.276C99.2344 129.958 99.5056 130.613 99.9884 131.096C100.471 131.579 101.126 131.85 101.809 131.85H104.874L107.557 137.4L109.045 131.85H113.078L113.058 130.937Z" fill="#263238"/>
<path d="M115.543 129.181H124.863C125.094 129.181 125.322 129.226 125.536 129.314C125.75 129.402 125.944 129.531 126.107 129.694C126.271 129.857 126.401 130.051 126.489 130.264C126.578 130.478 126.623 130.706 126.623 130.937V136.344C126.622 136.81 126.436 137.256 126.106 137.586C125.776 137.915 125.329 138.099 124.863 138.099H122.779L120.944 141.884L119.952 138.099H115.558C115.092 138.099 114.645 137.914 114.316 137.585C113.987 137.256 113.802 136.809 113.802 136.344V130.937C113.8 130.474 113.983 130.029 114.309 129.699C114.636 129.37 115.079 129.184 115.543 129.181Z" fill="#263238"/>
<path d="M102.988 122.371H114.282" stroke="#155DFC" stroke-width="3" stroke-linecap="round" stroke-linejoin="round"/>
<path d="M102.988 125.144H114.282" stroke="#155DFC" stroke-width="3" stroke-linecap="round" stroke-linejoin="round"/>
<path d="M102.988 127.917H114.282" stroke="#155DFC" stroke-width="3" stroke-linecap="round" stroke-linejoin="round"/>
<path d="M97.3438 139.017L127.099 118.676" stroke="#155DFC" stroke-width="6" stroke-linecap="round" stroke-linejoin="round"/>
<path d="M75.0975 175.376C82.2644 168.209 82.2644 156.589 75.0975 149.422C67.9306 142.256 56.3107 142.256 49.1438 149.422C41.9769 156.589 41.9769 168.209 49.1438 175.376C56.3107 182.543 67.9306 182.543 75.0975 175.376Z" fill="white" stroke="#155DFC" stroke-width="6" stroke-linecap="round" stroke-linejoin="round"/>
<path d="M62.128 155.35C59.3796 155.339 56.6803 156.078 54.321 157.488C53.3493 158.123 52.4137 158.812 51.5186 159.551C51.2904 159.766 51.0104 159.917 50.7062 159.991C50.4019 160.065 50.0837 160.059 49.7826 159.973C49.5517 159.902 49.3401 159.779 49.1635 159.614C48.987 159.45 48.8501 159.247 48.7632 159.021C48.6763 158.796 48.6416 158.554 48.6618 158.313C48.682 158.073 48.7566 157.84 48.8798 157.632C49.076 157.343 49.3095 157.081 49.5742 156.853C52.5185 154.191 56.2387 152.543 60.1886 152.151C65.7389 151.596 70.56 153.287 74.7413 156.913C74.9676 157.071 75.1588 157.274 75.3031 157.51C75.4473 157.745 75.5414 158.008 75.5795 158.282C75.6151 158.595 75.5583 158.913 75.4162 159.194C75.2741 159.476 75.0529 159.711 74.7796 159.868C74.5063 160.026 74.1929 160.101 73.8777 160.084C73.5625 160.066 73.2593 159.957 73.0053 159.77C72.6779 159.546 72.3902 159.274 72.0827 159.006C69.412 156.752 66.0532 155.475 62.5595 155.385L62.128 155.35Z" fill="#263238"/>
<path d="M70.317 164.199C70.0786 164.199 69.8427 164.151 69.6236 164.057C69.4045 163.963 69.2067 163.826 69.0422 163.653C67.2792 161.95 64.9478 160.96 62.4977 160.873C60.0477 160.787 57.6525 161.612 55.7742 163.187C55.4965 163.415 55.2286 163.683 54.931 163.877C54.6017 164.122 54.1917 164.234 53.7831 164.19C53.3746 164.146 52.998 163.949 52.7288 163.638C52.4614 163.335 52.3185 162.941 52.3286 162.537C52.3387 162.132 52.5011 161.746 52.7834 161.456C54.0959 160.088 55.7093 159.046 57.4954 158.411C59.1473 157.779 60.9108 157.49 62.6779 157.564C64.4451 157.637 66.1786 158.07 67.7725 158.837C69.1399 159.463 70.3833 160.33 71.4429 161.397C71.6835 161.629 71.8461 161.93 71.9083 162.259C71.9704 162.588 71.9291 162.927 71.7901 163.232C71.6721 163.524 71.4679 163.773 71.2046 163.945C70.9414 164.118 70.6317 164.207 70.317 164.199Z" fill="#263238"/>
<path d="M62.0837 163.068C63.1538 163.063 64.2131 163.281 65.1943 163.708C66.1755 164.135 67.057 164.762 67.7827 165.548C68.0776 165.843 68.2489 166.239 68.2618 166.655C68.2747 167.072 68.1282 167.478 67.8522 167.79C67.5613 168.105 67.1604 168.295 66.7328 168.322C66.3051 168.349 65.8836 168.21 65.5557 167.934C65.004 167.449 64.3922 167.037 63.7354 166.709C62.0093 166.009 60.432 166.401 59.0581 167.631C58.8496 167.873 58.5851 168.06 58.2877 168.176C57.9902 168.292 57.6689 168.333 57.3519 168.296C57.078 168.249 56.821 168.133 56.6059 167.957C56.3908 167.781 56.2251 167.553 56.1251 167.293C56.0251 167.034 55.9941 166.754 56.0353 166.479C56.0764 166.204 56.1883 165.945 56.3599 165.727C57.0938 164.818 58.0509 164.116 59.1375 163.688C60.0696 163.291 61.0706 163.08 62.0837 163.068Z" fill="#263238"/>
<path d="M62.1524 172.74C61.8904 172.745 61.6299 172.698 61.3868 172.6C61.1436 172.502 60.9228 172.356 60.7374 172.171C60.5521 171.986 60.4062 171.765 60.3084 171.522C60.2106 171.279 60.163 171.018 60.1684 170.756C60.1683 170.235 60.3733 169.735 60.7389 169.364C61.1046 168.992 61.6016 168.78 62.1226 168.772C62.3997 168.738 62.6808 168.763 62.9476 168.845C63.2145 168.927 63.461 169.064 63.6712 169.248C63.8813 169.431 64.0503 169.657 64.1671 169.911C64.284 170.164 64.346 170.44 64.3491 170.719C64.3523 170.998 64.2965 171.275 64.1855 171.531C64.0744 171.787 63.9106 172.016 63.7046 172.205C63.4987 172.393 63.2553 172.536 62.9904 172.624C62.7255 172.712 62.445 172.743 62.1673 172.715L62.1524 172.74Z" fill="#263238"/>
<path d="M46.7021 171.733L76.4572 151.392" stroke="#155DFC" stroke-width="6" stroke-linecap="round" stroke-linejoin="round"/>
</svg>
